# xmcd
# 
# Track frame offsets:
#     150
#     18337
#     35175
#     53350
# 
# Disc length: 932
# 
# Revision: 17
# Processed by: cddbd v1.5.2PL0 Copyright (c) Steve Scherf et al.
# Submitted via: fre:ac v1.0.27
# 
DISCID=2803a204
DTITLE=後ろから這いより隊G - 恋は渾沌の隷也
DYEAR=2013
DGENRE=Anime
TTITLE0=恋は渾沌の隷也
TTITLE1=Blast of Fate ～疾風の行方～
TTITLE2=恋は渾沌の隷也[Instrumental]
TTITLE3=Blast of Fate ～疾風の行方～[Instrumental]
EXTD=YEAR: 2013
EXTT0=
EXTT1=
EXTT2=
EXTT3=
PLAYORDER=
